<svg width="126" height="38" viewBox="0 0 126 38" fill="none" xmlns="http://www.w3.org/2000/svg">
<path d="M9.94333 10.3941C9.64487 10.0171 9.23646 9.74223 8.71808 9.56944C8.21542 9.38094 7.73632 9.28669 7.28078 9.28669C7.01374 9.28669 6.73884 9.31811 6.4561 9.38094C6.17335 9.44377 5.90631 9.54588 5.65497 9.68725C5.40364 9.81292 5.19943 9.98571 5.04235 10.2056C4.88527 10.4255 4.80673 10.6926 4.80673 11.0067C4.80673 11.5094 4.99523 11.8943 5.37223 12.1613C5.74922 12.4283 6.22047 12.6561 6.78597 12.8446C7.36717 13.0331 7.98765 13.2216 8.6474 13.4101C9.30714 13.5986 9.91977 13.8656 10.4853 14.2112C11.0665 14.5568 11.5456 15.0202 11.9226 15.6014C12.2996 16.1826 12.4881 16.9602 12.4881 17.9341C12.4881 18.8609 12.3153 19.6698 11.9697 20.361C11.6241 21.0522 11.1529 21.6255 10.556 22.0811C9.97475 22.5366 9.29144 22.8743 8.50602 23.0942C7.73632 23.3142 6.91949 23.4241 6.05553 23.4241C4.97166 23.4241 3.96634 23.2592 3.03955 22.9293C2.11276 22.5994 1.24881 22.0654 0.447685 21.3271L3.06311 18.4525C3.44011 18.9551 3.91136 19.3478 4.47685 19.6306C5.05806 19.8976 5.65497 20.0311 6.2676 20.0311C6.56605 20.0311 6.86451 19.9997 7.16297 19.9369C7.47713 19.8583 7.75203 19.7484 7.98765 19.607C8.23898 19.4656 8.43534 19.285 8.57671 19.0651C8.73379 18.8452 8.81233 18.586 8.81233 18.2875C8.81233 17.7849 8.61598 17.3922 8.22327 17.1094C7.84628 16.8109 7.36717 16.5596 6.78597 16.3554C6.20476 16.1512 5.57643 15.947 4.90098 15.7428C4.22552 15.5386 3.59719 15.2637 3.01599 14.9181C2.43478 14.5725 1.94782 14.117 1.55512 13.5515C1.17812 12.986 0.98962 12.2398 0.98962 11.3131C0.98962 10.4177 1.16241 9.63227 1.50799 8.95682C1.86928 8.28136 2.34053 7.71586 2.92174 7.26032C3.51865 6.80478 4.20196 6.46706 4.97166 6.24714C5.74137 6.01152 6.53464 5.89371 7.35147 5.89371C8.29396 5.89371 9.20504 6.02722 10.0847 6.29426C10.9644 6.56131 11.7576 7.00899 12.4645 7.63732L9.94333 10.3941ZM14.7788 5.18683H18.3131V16.0727L22.2245 11.5487H26.56L22.0124 16.7088L26.6778 23H22.2245L18.3603 17.2037H18.3131V23H14.7788V5.18683ZM27.9187 11.5487H31.453V23H27.9187V11.5487ZM27.6359 7.94363C27.6359 7.37814 27.8323 6.89903 28.225 6.50633C28.6334 6.09791 29.1204 5.89371 29.6858 5.89371C30.2513 5.89371 30.7304 6.09791 31.1232 6.50633C31.5316 6.89903 31.7358 7.37814 31.7358 7.94363C31.7358 8.50913 31.5316 8.99609 31.1232 9.4045C30.7304 9.79721 30.2513 9.99356 29.6858 9.99356C29.1204 9.99356 28.6334 9.79721 28.225 9.4045C27.8323 8.99609 27.6359 8.50913 27.6359 7.94363ZM34.3221 11.5487H37.5737V13.0567H37.6209C37.7622 12.8525 37.9429 12.6483 38.1628 12.444C38.3984 12.2241 38.6655 12.0278 38.9639 11.855C39.2781 11.6822 39.6158 11.5408 39.9771 11.4309C40.3384 11.3209 40.7232 11.2659 41.1316 11.2659C41.9799 11.2659 42.7496 11.4152 43.4408 11.7136C44.1319 11.9964 44.721 12.4048 45.2079 12.9389C45.7106 13.4572 46.0955 14.0777 46.3625 14.8003C46.6295 15.5229 46.7631 16.3161 46.7631 17.1801C46.7631 17.9812 46.6374 18.7509 46.3861 19.4892C46.1504 20.2118 45.8049 20.8558 45.3493 21.4213C44.9095 21.9868 44.3676 22.4424 43.7235 22.7879C43.0795 23.1178 42.349 23.2827 41.5322 23.2827C40.7939 23.2827 40.1028 23.1728 39.4587 22.9529C38.8304 22.7173 38.312 22.3245 37.9036 21.7748H37.8565V28.3722H34.3221V11.5487ZM37.5737 17.2743C37.5737 18.1383 37.8172 18.8373 38.3042 19.3714C38.8068 19.9055 39.5058 20.1725 40.4012 20.1725C41.2966 20.1725 41.9878 19.9055 42.4747 19.3714C42.9774 18.8373 43.2287 18.1383 43.2287 17.2743C43.2287 16.4104 42.9774 15.7114 42.4747 15.1773C41.9878 14.6432 41.2966 14.3762 40.4012 14.3762C39.5058 14.3762 38.8068 14.6432 38.3042 15.1773C37.8172 15.7114 37.5737 16.4104 37.5737 17.2743ZM48.8809 5.18683H52.4153V23H48.8809V5.18683ZM55.0016 11.5487H58.536V23H55.0016V11.5487ZM54.7189 7.94363C54.7189 7.37814 54.9152 6.89903 55.3079 6.50633C55.7163 6.09791 56.2033 5.89371 56.7688 5.89371C57.3343 5.89371 57.8134 6.09791 58.2061 6.50633C58.6145 6.89903 58.8187 7.37814 58.8187 7.94363C58.8187 8.50913 58.6145 8.99609 58.2061 9.4045C57.8134 9.79721 57.3343 9.99356 56.7688 9.99356C56.2033 9.99356 55.7163 9.79721 55.3079 9.4045C54.9152 8.99609 54.7189 8.50913 54.7189 7.94363ZM61.0752 11.5487H64.4682V13.1038H64.5153C64.6253 12.8839 64.7823 12.664 64.9865 12.444C65.1907 12.2241 65.4342 12.0278 65.717 11.855C65.9997 11.6822 66.3217 11.5408 66.683 11.4309C67.0443 11.3209 67.437 11.2659 67.8612 11.2659C68.7565 11.2659 69.4791 11.4073 70.0289 11.6901C70.5787 11.9571 71.0028 12.3341 71.3013 12.821C71.6154 13.308 71.8275 13.8814 71.9374 14.5411C72.0474 15.2008 72.1024 15.9156 72.1024 16.6853V23H68.568V17.3922C68.568 17.0623 68.5523 16.7246 68.5209 16.379C68.5052 16.0177 68.4345 15.6878 68.3088 15.3893C68.1989 15.0909 68.0182 14.8474 67.7669 14.6589C67.5313 14.4704 67.1857 14.3762 66.7302 14.3762C66.2746 14.3762 65.9055 14.4626 65.6227 14.6354C65.34 14.7924 65.1201 15.0123 64.963 15.2951C64.8216 15.5621 64.7274 15.8684 64.6802 16.214C64.6331 16.5596 64.6095 16.9209 64.6095 17.2979V23H61.0752V11.5487ZM85.4439 21.0208C84.8784 21.7433 84.1636 22.301 83.2997 22.6937C82.4357 23.0864 81.5403 23.2827 80.6136 23.2827C79.7339 23.2827 78.9014 23.1414 78.1159 22.8586C77.3462 22.5759 76.6708 22.1753 76.0896 21.6569C75.5241 21.1229 75.0764 20.4867 74.7465 19.7484C74.4167 19.0101 74.2517 18.1854 74.2517 17.2743C74.2517 16.3633 74.4167 15.5386 74.7465 14.8003C75.0764 14.062 75.5241 13.4337 76.0896 12.9153C76.6708 12.3812 77.3462 11.9728 78.1159 11.6901C78.9014 11.4073 79.7339 11.2659 80.6136 11.2659C81.4304 11.2659 82.1687 11.4073 82.8284 11.6901C83.5039 11.9728 84.0694 12.3812 84.5249 12.9153C84.9962 13.4337 85.3575 14.062 85.6088 14.8003C85.8601 15.5386 85.9858 16.3633 85.9858 17.2743V18.3818H77.7861C77.9274 19.0572 78.2338 19.5992 78.705 20.0076C79.1763 20.4003 79.7575 20.5966 80.4486 20.5966C81.0298 20.5966 81.5168 20.471 81.9095 20.2196C82.3179 19.9526 82.6713 19.6149 82.9698 19.2065L85.4439 21.0208ZM82.4514 15.9784C82.4671 15.3815 82.2708 14.871 81.8624 14.4469C81.454 14.0227 80.9277 13.8107 80.2837 13.8107C79.891 13.8107 79.5454 13.8735 79.2469 13.9992C78.9485 14.1248 78.6893 14.2898 78.4694 14.494C78.2652 14.6825 78.1002 14.9102 77.9746 15.1773C77.8646 15.4286 77.8018 15.6957 77.7861 15.9784H82.4514Z" fill="white"/>
<path d="M47.3273 28.3159H47.9211V30.8477H51.1044V28.3159H51.6982V34.1547H51.1044V31.392H47.9211V34.1547H47.3273V28.3159ZM56.388 32.2249C56.388 32.0105 56.3522 31.8098 56.2808 31.6229C56.2148 31.436 56.1186 31.2738 55.9921 31.1363C55.8657 30.9989 55.7117 30.8917 55.5303 30.8147C55.3544 30.7322 55.1537 30.691 54.9283 30.691C54.7029 30.691 54.4994 30.7322 54.318 30.8147C54.1421 30.8917 53.9909 30.9989 53.8644 31.1363C53.7435 31.2738 53.6473 31.436 53.5758 31.6229C53.5098 31.8098 53.4768 32.0105 53.4768 32.2249C53.4768 32.4393 53.5098 32.64 53.5758 32.8269C53.6473 33.0139 53.7435 33.176 53.8644 33.3135C53.9909 33.4509 54.1421 33.5609 54.318 33.6434C54.4994 33.7203 54.7029 33.7588 54.9283 33.7588C55.1537 33.7588 55.3544 33.7203 55.5303 33.6434C55.7117 33.5609 55.8657 33.4509 55.9921 33.3135C56.1186 33.176 56.2148 33.0139 56.2808 32.8269C56.3522 32.64 56.388 32.4393 56.388 32.2249ZM56.9817 32.2249C56.9817 32.5163 56.9295 32.7857 56.8251 33.0331C56.7261 33.2805 56.5859 33.4949 56.4045 33.6763C56.223 33.8578 56.0059 34.0007 55.753 34.1052C55.5056 34.2041 55.2307 34.2536 54.9283 34.2536C54.6314 34.2536 54.3565 34.2041 54.1036 34.1052C53.8562 34.0007 53.6418 33.8578 53.4603 33.6763C53.2789 33.4949 53.136 33.2805 53.0315 33.0331C52.9325 32.7857 52.8831 32.5163 52.8831 32.2249C52.8831 31.9335 52.9325 31.6641 53.0315 31.4167C53.136 31.1693 53.2789 30.9549 53.4603 30.7735C53.6418 30.592 53.8562 30.4518 54.1036 30.3529C54.3565 30.2484 54.6314 30.1962 54.9283 30.1962C55.2307 30.1962 55.5056 30.2484 55.753 30.3529C56.0059 30.4518 56.223 30.592 56.4045 30.7735C56.5859 30.9549 56.7261 31.1693 56.8251 31.4167C56.9295 31.6641 56.9817 31.9335 56.9817 32.2249ZM60.0147 31.2105C59.9322 31.0511 59.8223 30.9247 59.6848 30.8312C59.5474 30.7377 59.3797 30.691 59.1818 30.691C59.0883 30.691 58.9921 30.702 58.8931 30.724C58.7997 30.746 58.7145 30.7817 58.6375 30.8312C58.5605 30.8752 58.4973 30.9329 58.4478 31.0044C58.4038 31.0758 58.3818 31.1638 58.3818 31.2683C58.3818 31.4497 58.4451 31.5817 58.5715 31.6641C58.698 31.7466 58.8876 31.8181 59.1405 31.8785L59.6931 32.0105C59.9625 32.071 60.1851 32.1947 60.3611 32.3816C60.5425 32.563 60.6332 32.7912 60.6332 33.0661C60.6332 33.275 60.5892 33.4564 60.5013 33.6104C60.4188 33.7588 60.3061 33.8825 60.1632 33.9815C60.0257 34.0749 59.8663 34.1437 59.6848 34.1877C59.5034 34.2316 59.3192 34.2536 59.1323 34.2536C58.8354 34.2536 58.5578 34.1986 58.2994 34.0887C58.0465 33.9732 57.8293 33.7781 57.6479 33.5032L58.1179 33.1815C58.2279 33.3575 58.3653 33.4977 58.5303 33.6021C58.7007 33.7066 58.9014 33.7588 59.1323 33.7588C59.2423 33.7588 59.3522 33.7478 59.4622 33.7258C59.5721 33.6983 59.6683 33.6599 59.7508 33.6104C59.8388 33.5554 59.9075 33.4867 59.957 33.4042C60.012 33.3217 60.0395 33.2255 60.0395 33.1156C60.0395 32.9231 59.968 32.7857 59.825 32.7032C59.6821 32.6153 59.5089 32.5465 59.3055 32.497L58.7777 32.3733C58.7117 32.3569 58.621 32.3294 58.5055 32.2909C58.3956 32.2524 58.2856 32.1947 58.1757 32.1177C58.0712 32.0407 57.9805 31.9418 57.9035 31.8208C57.8265 31.6944 57.7881 31.5404 57.7881 31.359C57.7881 31.1611 57.8265 30.9879 57.9035 30.8394C57.986 30.691 58.0932 30.57 58.2251 30.4766C58.3626 30.3831 58.5165 30.3144 58.687 30.2704C58.8574 30.2209 59.0333 30.1962 59.2148 30.1962C59.4842 30.1962 59.7343 30.2484 59.9652 30.3529C60.1961 30.4573 60.3748 30.636 60.5013 30.8889L60.0147 31.2105ZM65.0022 32.2249C65.0022 32.0105 64.9665 31.8098 64.895 31.6229C64.8291 31.436 64.7328 31.2738 64.6064 31.1363C64.4799 30.9989 64.326 30.8917 64.1446 30.8147C63.9686 30.7322 63.768 30.691 63.5426 30.691C63.3171 30.691 63.111 30.7322 62.924 30.8147C62.7371 30.8917 62.5749 30.9989 62.4375 31.1363C62.3 31.2738 62.1928 31.436 62.1159 31.6229C62.0389 31.8098 62.0004 32.0105 62.0004 32.2249C62.0004 32.4393 62.0389 32.64 62.1159 32.8269C62.1928 33.0139 62.3 33.176 62.4375 33.3135C62.5749 33.4509 62.7371 33.5609 62.924 33.6434C63.111 33.7203 63.3171 33.7588 63.5426 33.7588C63.768 33.7588 63.9686 33.7203 64.1446 33.6434C64.326 33.5609 64.4799 33.4509 64.6064 33.3135C64.7328 33.176 64.8291 33.0139 64.895 32.8269C64.9665 32.64 65.0022 32.4393 65.0022 32.2249ZM61.4808 30.2951H62.0251V30.9384H62.0416C62.1296 30.8064 62.2341 30.6937 62.355 30.6003C62.476 30.5068 62.6024 30.4298 62.7344 30.3694C62.8663 30.3089 63.001 30.2649 63.1385 30.2374C63.2814 30.2099 63.4161 30.1962 63.5426 30.1962C63.8449 30.1962 64.1198 30.2484 64.3672 30.3529C64.6201 30.4518 64.8373 30.592 65.0187 30.7735C65.2002 30.9549 65.3404 31.1693 65.4393 31.4167C65.5438 31.6641 65.596 31.9335 65.596 32.2249C65.596 32.5163 65.5438 32.7857 65.4393 33.0331C65.3404 33.2805 65.2002 33.4949 65.0187 33.6763C64.8373 33.8578 64.6201 34.0007 64.3672 34.1052C64.1198 34.2041 63.8449 34.2536 63.5426 34.2536C63.4161 34.2536 63.2814 34.2399 63.1385 34.2124C63.001 34.1849 62.8663 34.1409 62.7344 34.0804C62.6024 34.02 62.476 33.943 62.355 33.8495C62.2341 33.7561 62.1296 33.6434 62.0416 33.5114H62.0251V36.5298H61.4808V30.2951ZM67.3141 28.8107C67.3141 28.9262 67.2728 29.0224 67.1904 29.0994C67.1079 29.1708 67.0172 29.2066 66.9182 29.2066C66.8193 29.2066 66.7285 29.1708 66.6461 29.0994C66.5636 29.0224 66.5224 28.9262 66.5224 28.8107C66.5224 28.6953 66.5636 28.6018 66.6461 28.5303C66.7285 28.4534 66.8193 28.4149 66.9182 28.4149C67.0172 28.4149 67.1079 28.4534 67.1904 28.5303C67.2728 28.6018 67.3141 28.6953 67.3141 28.8107ZM67.1904 34.1547H66.6461V30.2951H67.1904V34.1547ZM70.4993 30.79H69.386V33.0661C69.386 33.209 69.3997 33.3272 69.4272 33.4207C69.4547 33.5087 69.4932 33.5774 69.5426 33.6269C69.5921 33.6763 69.6498 33.7121 69.7158 33.7341C69.7873 33.7506 69.8643 33.7588 69.9467 33.7588C70.0402 33.7588 70.1364 33.7451 70.2354 33.7176C70.3343 33.6901 70.4251 33.6544 70.5075 33.6104L70.5323 34.1134C70.3288 34.2069 70.0842 34.2536 69.7983 34.2536C69.6938 34.2536 69.5839 34.2399 69.4684 34.2124C69.3585 34.1849 69.2568 34.1327 69.1633 34.0557C69.0698 33.9787 68.9929 33.8743 68.9324 33.7423C68.8719 33.6104 68.8417 33.4372 68.8417 33.2228V30.79H68.0252V30.2951H68.8417V29.2066H69.386V30.2951H70.4993V30.79ZM73.4354 32.2332C73.298 32.2332 73.1248 32.2414 72.9159 32.2579C72.7124 32.2689 72.5145 32.3019 72.3221 32.3569C72.1352 32.4063 71.973 32.4861 71.8355 32.596C71.7036 32.706 71.6376 32.8572 71.6376 33.0496C71.6376 33.176 71.6623 33.286 71.7118 33.3795C71.7668 33.4674 71.8383 33.5416 71.9262 33.6021C72.0142 33.6571 72.1104 33.6983 72.2149 33.7258C72.3248 33.7478 72.4348 33.7588 72.5447 33.7588C72.7427 33.7588 72.9131 33.7258 73.0561 33.6599C73.2045 33.5939 73.3282 33.5059 73.4272 33.396C73.5261 33.2805 73.5976 33.1485 73.6416 33.0001C73.6911 32.8462 73.7158 32.684 73.7158 32.5135V32.2332H73.4354ZM73.7158 31.7878V31.6889C73.7158 31.0236 73.3859 30.691 72.7262 30.691C72.2753 30.691 71.8823 30.8422 71.5469 31.1446L71.217 30.757C71.5799 30.3831 72.1242 30.1962 72.8499 30.1962C73.0368 30.1962 73.2155 30.2237 73.3859 30.2787C73.5619 30.3336 73.713 30.4188 73.8395 30.5343C73.966 30.6443 74.0677 30.7845 74.1446 30.9549C74.2216 31.1253 74.2601 31.3287 74.2601 31.5652V33.2887C74.2601 33.4372 74.2656 33.5939 74.2766 33.7588C74.2931 33.9183 74.3096 34.0502 74.3261 34.1547H73.7983C73.7818 34.0612 73.768 33.9595 73.757 33.8495C73.7515 33.7396 73.7488 33.6324 73.7488 33.5279H73.7323C73.5729 33.7863 73.3832 33.9732 73.1633 34.0887C72.9488 34.1986 72.6849 34.2536 72.3716 34.2536C72.2011 34.2536 72.0362 34.2289 71.8768 34.1794C71.7173 34.1354 71.5744 34.0667 71.4479 33.9732C71.327 33.8743 71.228 33.7561 71.151 33.6186C71.0796 33.4757 71.0438 33.3107 71.0438 33.1238C71.0438 32.8104 71.1235 32.5658 71.283 32.3898C71.4479 32.2084 71.6513 32.0737 71.8932 31.9857C72.1407 31.8978 72.4018 31.8428 72.6767 31.8208C72.9571 31.7988 73.2127 31.7878 73.4437 31.7878H73.7158ZM76.1862 34.1547H75.6419V27.9201H76.1862V34.1547ZM80.5863 30.8972H81.6419C81.9058 30.8972 82.1285 30.8697 82.3099 30.8147C82.4968 30.7597 82.6453 30.6882 82.7552 30.6003C82.8652 30.5068 82.9449 30.3996 82.9944 30.2787C83.0439 30.1522 83.0686 30.0175 83.0686 29.8746C83.0686 29.7371 83.0439 29.6079 82.9944 29.487C82.9449 29.3605 82.8652 29.2505 82.7552 29.1571C82.6453 29.0636 82.4968 28.9921 82.3099 28.9427C82.1285 28.8877 81.9058 28.8602 81.6419 28.8602H80.5863V30.8972ZM80.5863 34.1547H79.9925V28.3159H81.7904C82.3841 28.3159 82.8514 28.4451 83.1923 28.7035C83.5387 28.9619 83.7119 29.3523 83.7119 29.8746C83.7119 30.2814 83.5827 30.625 83.3243 30.9054C83.0714 31.1803 82.703 31.3397 82.2192 31.3837L83.9015 34.1547H83.1758L81.5759 31.4415H80.5863V34.1547ZM87.685 31.928C87.685 31.5597 87.575 31.2628 87.3551 31.0374C87.1352 30.8064 86.8273 30.691 86.4315 30.691C86.2555 30.691 86.0851 30.7267 85.9201 30.7982C85.7552 30.8642 85.6095 30.9549 85.4831 31.0703C85.3621 31.1858 85.2632 31.3178 85.1862 31.4662C85.1147 31.6146 85.079 31.7686 85.079 31.928H87.685ZM85.0625 32.3733C85.079 32.5658 85.1257 32.7472 85.2027 32.9176C85.2796 33.0881 85.3814 33.2365 85.5078 33.363C85.6343 33.4839 85.78 33.5801 85.9449 33.6516C86.1098 33.7231 86.2885 33.7588 86.4809 33.7588C86.7723 33.7588 87.0225 33.6928 87.2314 33.5609C87.4458 33.4234 87.608 33.2668 87.718 33.0908L88.1385 33.4372C87.9076 33.7286 87.652 33.9375 87.3716 34.0639C87.0967 34.1904 86.7998 34.2536 86.4809 34.2536C86.195 34.2536 85.9284 34.2041 85.681 34.1052C85.4391 34.0007 85.2302 33.8578 85.0542 33.6763C84.8783 33.4949 84.7381 33.2805 84.6336 33.0331C84.5347 32.7857 84.4852 32.5163 84.4852 32.2249C84.4852 31.9335 84.5347 31.6641 84.6336 31.4167C84.7326 31.1693 84.8701 30.9549 85.046 30.7735C85.2219 30.592 85.4281 30.4518 85.6645 30.3529C85.9009 30.2484 86.1566 30.1962 86.4315 30.1962C86.7228 30.1962 86.984 30.2484 87.2149 30.3529C87.4458 30.4573 87.6382 30.5975 87.7922 30.7735C87.9516 30.9439 88.0726 31.1473 88.155 31.3837C88.2375 31.6146 88.2787 31.862 88.2787 32.1259V32.3733H85.0625ZM92.0778 31.2023C91.9843 31.0594 91.8524 30.9384 91.6819 30.8394C91.517 30.7405 91.3273 30.691 91.1129 30.691C90.8875 30.6855 90.684 30.7212 90.5026 30.7982C90.3267 30.8752 90.1755 30.9824 90.049 31.1198C89.9226 31.2573 89.8264 31.4222 89.7604 31.6146C89.6944 31.8016 89.6614 32.005 89.6614 32.2249C89.6614 32.4448 89.6944 32.651 89.7604 32.8434C89.8264 33.0303 89.9226 33.1925 90.049 33.33C90.1755 33.4674 90.3267 33.5746 90.5026 33.6516C90.684 33.7286 90.8875 33.7643 91.1129 33.7588C91.3273 33.7588 91.517 33.7093 91.6819 33.6104C91.8524 33.5114 91.9843 33.3905 92.0778 33.2475L92.5231 33.5856C92.3307 33.811 92.1135 33.9787 91.8716 34.0887C91.6297 34.1931 91.3768 34.2481 91.1129 34.2536C90.7995 34.2591 90.5164 34.2124 90.2635 34.1134C90.0106 34.009 89.7934 33.866 89.612 33.6846C89.436 33.5032 89.3013 33.2887 89.2079 33.0413C89.1144 32.7884 89.0677 32.5163 89.0677 32.2249C89.0677 31.9335 89.1144 31.6641 89.2079 31.4167C89.3013 31.1638 89.436 30.9466 89.612 30.7652C89.7934 30.5838 90.0106 30.4436 90.2635 30.3446C90.5164 30.2402 90.7995 30.1907 91.1129 30.1962C91.3768 30.2017 91.6297 30.2594 91.8716 30.3694C92.1135 30.4738 92.3307 30.6388 92.5231 30.8642L92.0778 31.2023ZM96.2459 31.928C96.2459 31.5597 96.1359 31.2628 95.916 31.0374C95.6961 30.8064 95.3882 30.691 94.9924 30.691C94.8164 30.691 94.646 30.7267 94.4811 30.7982C94.3161 30.8642 94.1704 30.9549 94.044 31.0703C93.923 31.1858 93.8241 31.3178 93.7471 31.4662C93.6756 31.6146 93.6399 31.7686 93.6399 31.928H96.2459ZM93.6234 32.3733C93.6399 32.5658 93.6866 32.7472 93.7636 32.9176C93.8406 33.0881 93.9423 33.2365 94.0687 33.363C94.1952 33.4839 94.3409 33.5801 94.5058 33.6516C94.6708 33.7231 94.8494 33.7588 95.0419 33.7588C95.3332 33.7588 95.5834 33.6928 95.7923 33.5609C96.0067 33.4234 96.1689 33.2668 96.2789 33.0908L96.6995 33.4372C96.4686 33.7286 96.2129 33.9375 95.9325 34.0639C95.6576 34.1904 95.3607 34.2536 95.0419 34.2536C94.756 34.2536 94.4893 34.2041 94.2419 34.1052C94 34.0007 93.7911 33.8578 93.6152 33.6763C93.4392 33.4949 93.299 33.2805 93.1946 33.0331C93.0956 32.7857 93.0461 32.5163 93.0461 32.2249C93.0461 31.9335 93.0956 31.6641 93.1946 31.4167C93.2935 31.1693 93.431 30.9549 93.6069 30.7735C93.7828 30.592 93.989 30.4518 94.2254 30.3529C94.4618 30.2484 94.7175 30.1962 94.9924 30.1962C95.2838 30.1962 95.5449 30.2484 95.7758 30.3529C96.0067 30.4573 96.1992 30.5975 96.3531 30.7735C96.5125 30.9439 96.6335 31.1473 96.716 31.3837C96.7984 31.6146 96.8397 31.862 96.8397 32.1259V32.3733H93.6234ZM101.348 32.2249C101.348 32.0105 101.312 31.8098 101.241 31.6229C101.175 31.436 101.079 31.2738 100.952 31.1363C100.826 30.9989 100.672 30.8917 100.49 30.8147C100.314 30.7322 100.114 30.691 99.8882 30.691C99.6628 30.691 99.4566 30.7322 99.2697 30.8147C99.0828 30.8917 98.9206 30.9989 98.7832 31.1363C98.6457 31.2738 98.5385 31.436 98.4615 31.6229C98.3846 31.8098 98.3461 32.0105 98.3461 32.2249C98.3461 32.4393 98.3846 32.64 98.4615 32.8269C98.5385 33.0139 98.6457 33.176 98.7832 33.3135C98.9206 33.4509 99.0828 33.5609 99.2697 33.6434C99.4566 33.7203 99.6628 33.7588 99.8882 33.7588C100.114 33.7588 100.314 33.7203 100.49 33.6434C100.672 33.5609 100.826 33.4509 100.952 33.3135C101.079 33.176 101.175 33.0139 101.241 32.8269C101.312 32.64 101.348 32.4393 101.348 32.2249ZM97.8265 30.2951H98.3708V30.9384H98.3873C98.4753 30.8064 98.5797 30.6937 98.7007 30.6003C98.8216 30.5068 98.9481 30.4298 99.08 30.3694C99.212 30.3089 99.3467 30.2649 99.4841 30.2374C99.6271 30.2099 99.7618 30.1962 99.8882 30.1962C100.191 30.1962 100.466 30.2484 100.713 30.3529C100.966 30.4518 101.183 30.592 101.364 30.7735C101.546 30.9549 101.686 31.1693 101.785 31.4167C101.889 31.6641 101.942 31.9335 101.942 32.2249C101.942 32.5163 101.889 32.7857 101.785 33.0331C101.686 33.2805 101.546 33.4949 101.364 33.6763C101.183 33.8578 100.966 34.0007 100.713 34.1052C100.466 34.2041 100.191 34.2536 99.8882 34.2536C99.7618 34.2536 99.6271 34.2399 99.4841 34.2124C99.3467 34.1849 99.212 34.1409 99.08 34.0804C98.9481 34.02 98.8216 33.943 98.7007 33.8495C98.5797 33.7561 98.4753 33.6434 98.3873 33.5114H98.3708V36.5298H97.8265V30.2951ZM104.864 30.79H103.75V33.0661C103.75 33.209 103.764 33.3272 103.792 33.4207C103.819 33.5087 103.858 33.5774 103.907 33.6269C103.957 33.6763 104.014 33.7121 104.08 33.7341C104.152 33.7506 104.229 33.7588 104.311 33.7588C104.405 33.7588 104.501 33.7451 104.6 33.7176C104.699 33.6901 104.79 33.6544 104.872 33.6104L104.897 34.1134C104.693 34.2069 104.449 34.2536 104.163 34.2536C104.058 34.2536 103.948 34.2399 103.833 34.2124C103.723 34.1849 103.621 34.1327 103.528 34.0557C103.434 33.9787 103.357 33.8743 103.297 33.7423C103.236 33.6104 103.206 33.4372 103.206 33.2228V30.79H102.39V30.2951H103.206V29.2066H103.75V30.2951H104.864V30.79ZM106.398 28.8107C106.398 28.9262 106.357 29.0224 106.274 29.0994C106.192 29.1708 106.101 29.2066 106.002 29.2066C105.903 29.2066 105.812 29.1708 105.73 29.0994C105.647 29.0224 105.606 28.9262 105.606 28.8107C105.606 28.6953 105.647 28.6018 105.73 28.5303C105.812 28.4534 105.903 28.4149 106.002 28.4149C106.101 28.4149 106.192 28.4534 106.274 28.5303C106.357 28.6018 106.398 28.6953 106.398 28.8107ZM106.274 34.1547H105.73V30.2951H106.274V34.1547ZM110.894 32.2249C110.894 32.0105 110.859 31.8098 110.787 31.6229C110.721 31.436 110.625 31.2738 110.499 31.1363C110.372 30.9989 110.218 30.8917 110.037 30.8147C109.861 30.7322 109.66 30.691 109.435 30.691C109.209 30.691 109.006 30.7322 108.824 30.8147C108.649 30.8917 108.497 30.9989 108.371 31.1363C108.25 31.2738 108.154 31.436 108.082 31.6229C108.016 31.8098 107.983 32.0105 107.983 32.2249C107.983 32.4393 108.016 32.64 108.082 32.8269C108.154 33.0139 108.25 33.176 108.371 33.3135C108.497 33.4509 108.649 33.5609 108.824 33.6434C109.006 33.7203 109.209 33.7588 109.435 33.7588C109.66 33.7588 109.861 33.7203 110.037 33.6434C110.218 33.5609 110.372 33.4509 110.499 33.3135C110.625 33.176 110.721 33.0139 110.787 32.8269C110.859 32.64 110.894 32.4393 110.894 32.2249ZM111.488 32.2249C111.488 32.5163 111.436 32.7857 111.331 33.0331C111.233 33.2805 111.092 33.4949 110.911 33.6763C110.729 33.8578 110.512 34.0007 110.259 34.1052C110.012 34.2041 109.737 34.2536 109.435 34.2536C109.138 34.2536 108.863 34.2041 108.61 34.1052C108.363 34.0007 108.148 33.8578 107.967 33.6763C107.785 33.4949 107.642 33.2805 107.538 33.0331C107.439 32.7857 107.389 32.5163 107.389 32.2249C107.389 31.9335 107.439 31.6641 107.538 31.4167C107.642 31.1693 107.785 30.9549 107.967 30.7735C108.148 30.592 108.363 30.4518 108.61 30.3529C108.863 30.2484 109.138 30.1962 109.435 30.1962C109.737 30.1962 110.012 30.2484 110.259 30.3529C110.512 30.4518 110.729 30.592 110.911 30.7735C111.092 30.9549 111.233 31.1693 111.331 31.4167C111.436 31.6641 111.488 31.9335 111.488 32.2249ZM112.995 30.2951C113.006 30.3996 113.012 30.5041 113.012 30.6085C113.017 30.7075 113.02 30.8092 113.02 30.9137H113.037C113.097 30.8092 113.174 30.713 113.268 30.625C113.361 30.5371 113.466 30.4628 113.581 30.4024C113.696 30.3364 113.817 30.2869 113.944 30.2539C114.076 30.2154 114.205 30.1962 114.331 30.1962C114.826 30.1962 115.192 30.3281 115.428 30.592C115.665 30.8504 115.783 31.2215 115.783 31.7054V34.1547H115.239V32.0187C115.239 31.5899 115.164 31.2628 115.016 31.0374C114.868 30.8064 114.593 30.691 114.191 30.691C114.164 30.691 114.087 30.702 113.96 30.724C113.834 30.746 113.699 30.8064 113.556 30.9054C113.419 31.0044 113.295 31.1528 113.185 31.3507C113.075 31.5487 113.02 31.8236 113.02 32.1754V34.1547H112.476V31.1446C112.476 31.0401 112.47 30.9082 112.459 30.7487C112.454 30.5893 112.446 30.4381 112.435 30.2951H112.995ZM117.85 28.8107C117.85 28.9262 117.809 29.0224 117.726 29.0994C117.644 29.1708 117.553 29.2066 117.454 29.2066C117.355 29.2066 117.265 29.1708 117.182 29.0994C117.1 29.0224 117.058 28.9262 117.058 28.8107C117.058 28.6953 117.1 28.6018 117.182 28.5303C117.265 28.4534 117.355 28.4149 117.454 28.4149C117.553 28.4149 117.644 28.4534 117.726 28.5303C117.809 28.6018 117.85 28.6953 117.85 28.8107ZM117.726 34.1547H117.182V30.2951H117.726V34.1547ZM121.085 31.2105C121.002 31.0511 120.892 30.9247 120.755 30.8312C120.617 30.7377 120.45 30.691 120.252 30.691C120.158 30.691 120.062 30.702 119.963 30.724C119.87 30.746 119.785 30.7817 119.708 30.8312C119.631 30.8752 119.567 30.9329 119.518 31.0044C119.474 31.0758 119.452 31.1638 119.452 31.2683C119.452 31.4497 119.515 31.5817 119.642 31.6641C119.768 31.7466 119.958 31.8181 120.211 31.8785L120.763 32.0105C121.033 32.071 121.255 32.1947 121.431 32.3816C121.613 32.563 121.703 32.7912 121.703 33.0661C121.703 33.275 121.659 33.4564 121.571 33.6104C121.489 33.7588 121.376 33.8825 121.233 33.9815C121.096 34.0749 120.936 34.1437 120.755 34.1877C120.573 34.2316 120.389 34.2536 120.202 34.2536C119.905 34.2536 119.628 34.1986 119.369 34.0887C119.117 33.9732 118.899 33.7781 118.718 33.5032L119.188 33.1815C119.298 33.3575 119.435 33.4977 119.6 33.6021C119.771 33.7066 119.971 33.7588 120.202 33.7588C120.312 33.7588 120.422 33.7478 120.532 33.7258C120.642 33.6983 120.738 33.6599 120.821 33.6104C120.909 33.5554 120.978 33.4867 121.027 33.4042C121.082 33.3217 121.11 33.2255 121.11 33.1156C121.11 32.9231 121.038 32.7857 120.895 32.7032C120.752 32.6153 120.579 32.5465 120.376 32.497L119.848 32.3733C119.782 32.3569 119.691 32.3294 119.576 32.2909C119.466 32.2524 119.356 32.1947 119.246 32.1177C119.141 32.0407 119.051 31.9418 118.974 31.8208C118.897 31.6944 118.858 31.5404 118.858 31.359C118.858 31.1611 118.897 30.9879 118.974 30.8394C119.056 30.691 119.163 30.57 119.295 30.4766C119.433 30.3831 119.587 30.3144 119.757 30.2704C119.927 30.2209 120.103 30.1962 120.285 30.1962C120.554 30.1962 120.804 30.2484 121.035 30.3529C121.266 30.4573 121.445 30.636 121.571 30.8889L121.085 31.2105ZM124.547 30.79H123.433V33.0661C123.433 33.209 123.447 33.3272 123.475 33.4207C123.502 33.5087 123.541 33.5774 123.59 33.6269C123.64 33.6763 123.697 33.7121 123.763 33.7341C123.835 33.7506 123.912 33.7588 123.994 33.7588C124.088 33.7588 124.184 33.7451 124.283 33.7176C124.382 33.6901 124.472 33.6544 124.555 33.6104L124.58 34.1134C124.376 34.2069 124.132 34.2536 123.846 34.2536C123.741 34.2536 123.631 34.2399 123.516 34.2124C123.406 34.1849 123.304 34.1327 123.211 34.0557C123.117 33.9787 123.04 33.8743 122.98 33.7423C122.919 33.6104 122.889 33.4372 122.889 33.2228V30.79H122.073V30.2951H122.889V29.2066H123.433V30.2951H124.547V30.79Z" fill="#E0D6FF"/>
</svg>
