<svg width="159" height="48" viewBox="0 0 159 48" fill="none" xmlns="http://www.w3.org/2000/svg">
<path d="M13.1883 14.5949C12.8117 14.1192 12.2964 13.7724 11.6424 13.5544C11.0082 13.3165 10.4037 13.1976 9.8289 13.1976C9.49197 13.1976 9.14513 13.2372 8.78838 13.3165C8.43163 13.3958 8.0947 13.5246 7.77759 13.703C7.46047 13.8616 7.20282 14.0796 7.00463 14.357C6.80643 14.6345 6.70734 14.9714 6.70734 15.3678C6.70734 16.0021 6.94517 16.4876 7.42084 16.8246C7.8965 17.1615 8.49109 17.4489 9.20459 17.6867C9.93791 17.9245 10.7208 18.1624 11.5532 18.4002C12.3856 18.638 13.1586 18.975 13.8721 19.411C14.6054 19.847 15.2099 20.4317 15.6856 21.165C16.1612 21.8984 16.3991 22.8794 16.3991 24.1082C16.3991 25.2776 16.181 26.2983 15.745 27.1703C15.309 28.0424 14.7144 28.7658 13.9613 29.3406C13.2279 29.9153 12.3658 30.3414 11.3748 30.6189C10.4037 30.8964 9.37305 31.0351 8.28298 31.0351C6.91544 31.0351 5.64699 30.827 4.47765 30.4108C3.3083 29.9946 2.21823 29.3207 1.20743 28.3892L4.50737 24.7623C4.98304 25.3965 5.57763 25.892 6.29113 26.2487C7.02445 26.5857 7.77759 26.7541 8.55055 26.7541C8.92712 26.7541 9.30369 26.7145 9.68026 26.6352C10.0766 26.5361 10.4235 26.3974 10.7208 26.219C11.0379 26.0406 11.2856 25.8127 11.464 25.5352C11.6622 25.2578 11.7613 24.9307 11.7613 24.5542C11.7613 23.9199 11.5136 23.4245 11.0181 23.0677C10.5424 22.6911 9.93791 22.374 9.20459 22.1164C8.47127 21.8587 7.67849 21.6011 6.82625 21.3434C5.97401 21.0858 5.18124 20.7389 4.44792 20.3029C3.7146 19.8669 3.10019 19.2921 2.60471 18.5786C2.12904 17.8651 1.8912 16.9237 1.8912 15.7543C1.8912 14.6246 2.10922 13.6336 2.54525 12.7814C3.00109 11.9292 3.59568 11.2157 4.329 10.6409C5.08214 10.0661 5.94429 9.64001 6.91544 9.36254C7.88659 9.06525 8.88748 8.9166 9.91809 8.9166C11.1073 8.9166 12.2568 9.08507 13.3667 9.422C14.4766 9.75893 15.4775 10.3238 16.3693 11.1166L13.1883 14.5949ZM19.2893 8.02472H23.7487V21.7596L28.6837 16.0516H34.1539L28.4162 22.5623L34.3025 30.5H28.6837L23.8081 23.1866H23.7487V30.5H19.2893V8.02472ZM35.8682 16.0516H40.3276V30.5H35.8682V16.0516ZM35.5114 11.503C35.5114 10.7895 35.7592 10.185 36.2547 9.68956C36.77 9.17425 37.3844 8.9166 38.0979 8.9166C38.8114 8.9166 39.4159 9.17425 39.9114 9.68956C40.4267 10.185 40.6843 10.7895 40.6843 11.503C40.6843 12.2165 40.4267 12.8309 39.9114 13.3463C39.4159 13.8417 38.8114 14.0895 38.0979 14.0895C37.3844 14.0895 36.77 13.8417 36.2547 13.3463C35.7592 12.8309 35.5114 12.2165 35.5114 11.503ZM43.9476 16.0516H48.0502V17.9543H48.1097C48.288 17.6966 48.516 17.439 48.7934 17.1813C49.0907 16.9038 49.4277 16.6561 49.8042 16.4381C50.2006 16.2201 50.6267 16.0417 51.0826 15.903C51.5384 15.7642 52.024 15.6949 52.5393 15.6949C53.6096 15.6949 54.5807 15.8831 55.4528 16.2597C56.3248 16.6165 57.0681 17.1318 57.6825 17.8056C58.3167 18.4597 58.8023 19.2425 59.1392 20.1542C59.4761 21.0659 59.6446 22.0668 59.6446 23.1569C59.6446 24.1677 59.486 25.1388 59.1689 26.0703C58.8716 26.982 58.4356 27.7946 57.8608 28.5081C57.3059 29.2216 56.6221 29.7964 55.8095 30.2324C54.9969 30.6486 54.0753 30.8568 53.0447 30.8568C52.1132 30.8568 51.2411 30.718 50.4285 30.4405C49.6358 30.1432 48.9817 29.6478 48.4664 28.9541H48.407V37.2783H43.9476V16.0516ZM48.0502 23.2758C48.0502 24.3659 48.3574 25.2478 48.9718 25.9217C49.606 26.5956 50.488 26.9325 51.6177 26.9325C52.7474 26.9325 53.6195 26.5956 54.2339 25.9217C54.8681 25.2478 55.1852 24.3659 55.1852 23.2758C55.1852 22.1857 54.8681 21.3038 54.2339 20.6299C53.6195 19.956 52.7474 19.6191 51.6177 19.6191C50.488 19.6191 49.606 19.956 48.9718 20.6299C48.3574 21.3038 48.0502 22.1857 48.0502 23.2758ZM62.3167 8.02472H66.7761V30.5H62.3167V8.02472ZM70.0394 16.0516H74.4987V30.5H70.0394V16.0516ZM69.6826 11.503C69.6826 10.7895 69.9304 10.185 70.4258 9.68956C70.9411 9.17425 71.5555 8.9166 72.269 8.9166C72.9825 8.9166 73.587 9.17425 74.0825 9.68956C74.5978 10.185 74.8555 10.7895 74.8555 11.503C74.8555 12.2165 74.5978 12.8309 74.0825 13.3463C73.587 13.8417 72.9825 14.0895 72.269 14.0895C71.5555 14.0895 70.9411 13.8417 70.4258 13.3463C69.9304 12.8309 69.6826 12.2165 69.6826 11.503ZM77.7025 16.0516H81.9835V18.0137H82.043C82.1817 17.7363 82.3799 17.4588 82.6376 17.1813C82.8952 16.9038 83.2024 16.6561 83.5592 16.4381C83.9159 16.2201 84.3222 16.0417 84.7781 15.903C85.2339 15.7642 85.7294 15.6949 86.2645 15.6949C87.3942 15.6949 88.3059 15.8732 88.9996 16.23C89.6933 16.5669 90.2284 17.0426 90.605 17.657C91.0014 18.2714 91.269 18.9948 91.4077 19.8272C91.5464 20.6596 91.6158 21.5614 91.6158 22.5326V30.5H87.1564V23.4245C87.1564 23.0082 87.1366 22.5821 87.097 22.1461C87.0771 21.6902 86.9879 21.274 86.8294 20.8975C86.6907 20.5209 86.4627 20.2137 86.1456 19.9759C85.8483 19.738 85.4123 19.6191 84.8375 19.6191C84.2628 19.6191 83.797 19.7281 83.4403 19.9461C83.0835 20.1443 82.806 20.4218 82.6078 20.7786C82.4295 21.1155 82.3106 21.502 82.2511 21.938C82.1916 22.374 82.1619 22.8299 82.1619 23.3055V30.5H77.7025V16.0516ZM108.449 28.0027C107.736 28.9144 106.834 29.618 105.744 30.1135C104.654 30.609 103.524 30.8568 102.355 30.8568C101.245 30.8568 100.194 30.6784 99.2032 30.3216C98.2321 29.9649 97.3798 29.4595 96.6465 28.8054C95.933 28.1316 95.3682 27.3289 94.952 26.3974C94.5358 25.4659 94.3276 24.4253 94.3276 23.2758C94.3276 22.1263 94.5358 21.0858 94.952 20.1542C95.3682 19.2227 95.933 18.4299 96.6465 17.7759C97.3798 17.102 98.2321 16.5867 99.2032 16.23C100.194 15.8732 101.245 15.6949 102.355 15.6949C103.385 15.6949 104.317 15.8732 105.149 16.23C106.001 16.5867 106.715 17.102 107.29 17.7759C107.884 18.4299 108.34 19.2227 108.657 20.1542C108.974 21.0858 109.133 22.1263 109.133 23.2758V24.6731H98.787C98.9654 25.5253 99.3519 26.2091 99.9465 26.7244C100.541 27.2199 101.274 27.4676 102.146 27.4676C102.88 27.4676 103.494 27.3091 103.99 26.992C104.505 26.655 104.951 26.2289 105.327 25.7136L108.449 28.0027ZM104.673 21.6407C104.693 20.8876 104.445 20.2434 103.93 19.7083C103.415 19.1732 102.751 18.9056 101.938 18.9056C101.443 18.9056 101.007 18.9849 100.63 19.1434C100.254 19.302 99.9266 19.5101 99.6492 19.7678C99.3915 20.0056 99.1834 20.293 99.0249 20.6299C98.8861 20.947 98.8068 21.2839 98.787 21.6407H104.673Z" fill="#5A36CD"/>
<path d="M60.3568 36.1331H61.106V39.3275H65.1224V36.1331H65.8716V43.5H65.1224V40.0143H61.106V43.5H60.3568V36.1331ZM71.7888 41.0652C71.7888 40.7946 71.7437 40.5414 71.6535 40.3056C71.5703 40.0697 71.4489 39.8651 71.2894 39.6917C71.1298 39.5183 70.9356 39.383 70.7067 39.2859C70.4847 39.1818 70.2315 39.1298 69.9471 39.1298C69.6627 39.1298 69.406 39.1818 69.1771 39.2859C68.9551 39.383 68.7644 39.5183 68.6048 39.6917C68.4522 39.8651 68.3308 40.0697 68.2406 40.3056C68.1574 40.5414 68.1158 40.7946 68.1158 41.0652C68.1158 41.3357 68.1574 41.5889 68.2406 41.8248C68.3308 42.0606 68.4522 42.2652 68.6048 42.4387C68.7644 42.6121 68.9551 42.7508 69.1771 42.8549C69.406 42.952 69.6627 43.0005 69.9471 43.0005C70.2315 43.0005 70.4847 42.952 70.7067 42.8549C70.9356 42.7508 71.1298 42.6121 71.2894 42.4387C71.4489 42.2652 71.5703 42.0606 71.6535 41.8248C71.7437 41.5889 71.7888 41.3357 71.7888 41.0652ZM72.538 41.0652C72.538 41.4328 72.4721 41.7727 72.3403 42.0849C72.2154 42.397 72.0385 42.6676 71.8096 42.8965C71.5807 43.1254 71.3067 43.3058 70.9876 43.4376C70.6755 43.5624 70.3286 43.6249 69.9471 43.6249C69.5725 43.6249 69.2257 43.5624 68.9066 43.4376C68.5944 43.3058 68.3239 43.1254 68.095 42.8965C67.866 42.6676 67.6857 42.397 67.5539 42.0849C67.429 41.7727 67.3666 41.4328 67.3666 41.0652C67.3666 40.6975 67.429 40.3576 67.5539 40.0455C67.6857 39.7333 67.866 39.4628 68.095 39.2339C68.3239 39.0049 68.5944 38.8281 68.9066 38.7032C69.2257 38.5714 69.5725 38.5055 69.9471 38.5055C70.3286 38.5055 70.6755 38.5714 70.9876 38.7032C71.3067 38.8281 71.5807 39.0049 71.8096 39.2339C72.0385 39.4628 72.2154 39.7333 72.3403 40.0455C72.4721 40.3576 72.538 40.6975 72.538 41.0652ZM76.3648 39.7853C76.2607 39.5842 76.122 39.4246 75.9485 39.3067C75.7751 39.1888 75.5636 39.1298 75.3138 39.1298C75.1959 39.1298 75.0745 39.1437 74.9496 39.1714C74.8317 39.1992 74.7242 39.2443 74.6271 39.3067C74.53 39.3622 74.4502 39.435 74.3878 39.5252C74.3323 39.6154 74.3045 39.7264 74.3045 39.8582C74.3045 40.0871 74.3843 40.2536 74.5438 40.3576C74.7034 40.4617 74.9427 40.5519 75.2618 40.6282L75.959 40.7946C76.2989 40.8709 76.5798 41.027 76.8018 41.2629C77.0307 41.4918 77.1451 41.7797 77.1451 42.1265C77.1451 42.3901 77.0897 42.619 76.9787 42.8133C76.8746 43.0005 76.7324 43.1566 76.552 43.2815C76.3786 43.3994 76.1775 43.4861 75.9485 43.5416C75.7196 43.5971 75.4872 43.6249 75.2514 43.6249C74.8768 43.6249 74.5265 43.5555 74.2005 43.4168C73.8814 43.2711 73.6074 43.0248 73.3785 42.678L73.9716 42.2722C74.1103 42.4942 74.2837 42.6711 74.4918 42.8029C74.7069 42.9346 74.96 43.0005 75.2514 43.0005C75.3901 43.0005 75.5289 42.9867 75.6676 42.9589C75.8063 42.9242 75.9277 42.8757 76.0318 42.8133C76.1428 42.7439 76.2295 42.6572 76.2919 42.5531C76.3613 42.4491 76.396 42.3277 76.396 42.1889C76.396 41.9462 76.3058 41.7727 76.1254 41.6687C75.9451 41.5577 75.7266 41.471 75.4699 41.4086L74.804 41.2525C74.7207 41.2317 74.6063 41.197 74.4606 41.1484C74.3219 41.0999 74.1831 41.027 74.0444 40.9299C73.9126 40.8328 73.7981 40.7079 73.701 40.5553C73.6039 40.3958 73.5553 40.2015 73.5553 39.9726C73.5553 39.7229 73.6039 39.5044 73.701 39.3171C73.8051 39.1298 73.9403 38.9772 74.1068 38.8593C74.2802 38.7413 74.4745 38.6546 74.6895 38.5991C74.9046 38.5367 75.1265 38.5055 75.3554 38.5055C75.6954 38.5055 76.011 38.5714 76.3023 38.7032C76.5937 38.835 76.8191 39.0604 76.9787 39.3795L76.3648 39.7853ZM82.6576 41.0652C82.6576 40.7946 82.6125 40.5414 82.5224 40.3056C82.4391 40.0697 82.3177 39.8651 82.1582 39.6917C81.9986 39.5183 81.8044 39.383 81.5755 39.2859C81.3535 39.1818 81.1003 39.1298 80.8159 39.1298C80.5315 39.1298 80.2714 39.1818 80.0355 39.2859C79.7997 39.383 79.595 39.5183 79.4216 39.6917C79.2482 39.8651 79.1129 40.0697 79.0158 40.3056C78.9187 40.5414 78.8701 40.7946 78.8701 41.0652C78.8701 41.3357 78.9187 41.5889 79.0158 41.8248C79.1129 42.0606 79.2482 42.2652 79.4216 42.4387C79.595 42.6121 79.7997 42.7508 80.0355 42.8549C80.2714 42.952 80.5315 43.0005 80.8159 43.0005C81.1003 43.0005 81.3535 42.952 81.5755 42.8549C81.8044 42.7508 81.9986 42.6121 82.1582 42.4387C82.3177 42.2652 82.4391 42.0606 82.5224 41.8248C82.6125 41.5889 82.6576 41.3357 82.6576 41.0652ZM78.2146 38.6304H78.9014V39.442H78.9222C79.0332 39.2755 79.165 39.1333 79.3176 39.0153C79.4702 38.8974 79.6297 38.8003 79.7962 38.724C79.9627 38.6477 80.1326 38.5922 80.3061 38.5575C80.4864 38.5228 80.6564 38.5055 80.8159 38.5055C81.1974 38.5055 81.5443 38.5714 81.8564 38.7032C82.1755 38.8281 82.4495 39.0049 82.6784 39.2339C82.9074 39.4628 83.0843 39.7333 83.2091 40.0455C83.3409 40.3576 83.4068 40.6975 83.4068 41.0652C83.4068 41.4328 83.3409 41.7727 83.2091 42.0849C83.0843 42.397 82.9074 42.6676 82.6784 42.8965C82.4495 43.1254 82.1755 43.3058 81.8564 43.4376C81.5443 43.5624 81.1974 43.6249 80.8159 43.6249C80.6564 43.6249 80.4864 43.6075 80.3061 43.5728C80.1326 43.5382 79.9627 43.4827 79.7962 43.4064C79.6297 43.33 79.4702 43.2329 79.3176 43.115C79.165 42.9971 79.0332 42.8549 78.9222 42.6884H78.9014V46.4967H78.2146V38.6304ZM85.5745 36.7574C85.5745 36.9031 85.5225 37.0245 85.4184 37.1216C85.3144 37.2118 85.1999 37.2569 85.0751 37.2569C84.9502 37.2569 84.8357 37.2118 84.7317 37.1216C84.6276 37.0245 84.5756 36.9031 84.5756 36.7574C84.5756 36.6117 84.6276 36.4938 84.7317 36.4036C84.8357 36.3065 84.9502 36.258 85.0751 36.258C85.1999 36.258 85.3144 36.3065 85.4184 36.4036C85.5225 36.4938 85.5745 36.6117 85.5745 36.7574ZM85.4184 43.5H84.7317V38.6304H85.4184V43.5ZM89.5934 39.2547H88.1887V42.1265C88.1887 42.3069 88.206 42.456 88.2407 42.5739C88.2754 42.6849 88.3239 42.7716 88.3864 42.8341C88.4488 42.8965 88.5216 42.9416 88.6049 42.9693C88.695 42.9901 88.7922 43.0005 88.8962 43.0005C89.0141 43.0005 89.1355 42.9832 89.2604 42.9485C89.3853 42.9138 89.4997 42.8687 89.6038 42.8133L89.635 43.448C89.3783 43.5659 89.0696 43.6249 88.7089 43.6249C88.5771 43.6249 88.4384 43.6075 88.2927 43.5728C88.154 43.5382 88.0256 43.4723 87.9077 43.3751C87.7898 43.278 87.6927 43.1462 87.6164 42.9797C87.5401 42.8133 87.5019 42.5947 87.5019 42.3242V39.2547H86.4718V38.6304H87.5019V37.2569H88.1887V38.6304H89.5934V39.2547ZM93.2979 41.0756C93.1245 41.0756 92.906 41.086 92.6424 41.1068C92.3858 41.1207 92.136 41.1623 91.8932 41.2317C91.6574 41.2941 91.4528 41.3947 91.2793 41.5334C91.1129 41.6721 91.0296 41.8629 91.0296 42.1057C91.0296 42.2652 91.0608 42.404 91.1233 42.5219C91.1926 42.6329 91.2828 42.7265 91.3938 42.8029C91.5048 42.8722 91.6262 42.9242 91.758 42.9589C91.8967 42.9867 92.0354 43.0005 92.1742 43.0005C92.4239 43.0005 92.639 42.9589 92.8193 42.8757C93.0066 42.7924 93.1627 42.6815 93.2875 42.5427C93.4124 42.397 93.5026 42.2306 93.5581 42.0433C93.6205 41.849 93.6517 41.6444 93.6517 41.4294V41.0756H93.2979ZM93.6517 40.5137V40.3888C93.6517 39.5495 93.2355 39.1298 92.4031 39.1298C91.8343 39.1298 91.3383 39.3206 90.9152 39.7021L90.4989 39.213C90.9568 38.7413 91.6435 38.5055 92.5592 38.5055C92.795 38.5055 93.0205 38.5402 93.2355 38.6095C93.4575 38.6789 93.6483 38.7864 93.8078 38.9321C93.9674 39.0708 94.0957 39.2477 94.1928 39.4628C94.2899 39.6778 94.3385 39.9345 94.3385 40.2328V42.4075C94.3385 42.5947 94.3454 42.7924 94.3593 43.0005C94.3801 43.2017 94.4009 43.3682 94.4217 43.5H93.7558C93.735 43.3821 93.7176 43.2537 93.7038 43.115C93.6968 42.9763 93.6933 42.841 93.6933 42.7092H93.6725C93.4714 43.0352 93.232 43.2711 92.9546 43.4168C92.684 43.5555 92.3511 43.6249 91.9557 43.6249C91.7406 43.6249 91.5325 43.5936 91.3314 43.5312C91.1302 43.4757 90.9498 43.389 90.7903 43.2711C90.6377 43.1462 90.5128 42.9971 90.4157 42.8237C90.3255 42.6433 90.2804 42.4352 90.2804 42.1993C90.2804 41.8039 90.381 41.4953 90.5822 41.2733C90.7903 41.0444 91.047 40.8744 91.3522 40.7634C91.6643 40.6524 91.9938 40.5831 92.3407 40.5553C92.6944 40.5276 93.017 40.5137 93.3084 40.5137H93.6517ZM96.7687 43.5H96.0819V35.6337H96.7687V43.5ZM102.32 39.3899H103.652C103.985 39.3899 104.266 39.3553 104.495 39.2859C104.731 39.2165 104.918 39.1263 105.057 39.0153C105.196 38.8974 105.296 38.7622 105.359 38.6095C105.421 38.45 105.452 38.28 105.452 38.0997C105.452 37.9263 105.421 37.7633 105.359 37.6106C105.296 37.4511 105.196 37.3124 105.057 37.1944C104.918 37.0765 104.731 36.9863 104.495 36.9239C104.266 36.8545 103.985 36.8198 103.652 36.8198H102.32V39.3899ZM102.32 43.5H101.571V36.1331H103.84C104.589 36.1331 105.178 36.2961 105.608 36.6221C106.045 36.9482 106.264 37.4407 106.264 38.0997C106.264 38.613 106.101 39.0466 105.775 39.4003C105.456 39.7472 104.991 39.9484 104.381 40.0038L106.503 43.5H105.588L103.569 40.0767H102.32V43.5ZM111.277 40.6906C111.277 40.2258 111.138 39.8512 110.861 39.5668C110.583 39.2755 110.195 39.1298 109.695 39.1298C109.473 39.1298 109.258 39.1749 109.05 39.2651C108.842 39.3483 108.658 39.4628 108.499 39.6084C108.346 39.7541 108.221 39.9206 108.124 40.1079C108.034 40.2952 107.989 40.4894 107.989 40.6906H111.277ZM107.968 41.2525C107.989 41.4953 108.048 41.7242 108.145 41.9392C108.242 42.1543 108.37 42.3416 108.53 42.5011C108.69 42.6537 108.873 42.7751 109.081 42.8653C109.29 42.9555 109.515 43.0005 109.758 43.0005C110.125 43.0005 110.441 42.9173 110.705 42.7508C110.975 42.5774 111.18 42.3797 111.319 42.1577L111.849 42.5947C111.558 42.9624 111.235 43.226 110.882 43.3855C110.535 43.5451 110.16 43.6249 109.758 43.6249C109.397 43.6249 109.061 43.5624 108.748 43.4376C108.443 43.3058 108.18 43.1254 107.958 42.8965C107.736 42.6676 107.559 42.397 107.427 42.0849C107.302 41.7727 107.24 41.4328 107.24 41.0652C107.24 40.6975 107.302 40.3576 107.427 40.0455C107.552 39.7333 107.725 39.4628 107.947 39.2339C108.169 39.0049 108.429 38.8281 108.728 38.7032C109.026 38.5714 109.349 38.5055 109.695 38.5055C110.063 38.5055 110.393 38.5714 110.684 38.7032C110.975 38.835 111.218 39.0119 111.412 39.2339C111.613 39.4489 111.766 39.7056 111.87 40.0038C111.974 40.2952 112.026 40.6073 112.026 40.9403V41.2525H107.968ZM116.819 39.7749C116.702 39.5946 116.535 39.442 116.32 39.3171C116.112 39.1922 115.873 39.1298 115.602 39.1298C115.318 39.1229 115.061 39.168 114.832 39.2651C114.61 39.3622 114.419 39.4975 114.26 39.6709C114.1 39.8443 113.979 40.0524 113.896 40.2952C113.812 40.531 113.771 40.7877 113.771 41.0652C113.771 41.3427 113.812 41.6028 113.896 41.8456C113.979 42.0814 114.1 42.2861 114.26 42.4595C114.419 42.6329 114.61 42.7682 114.832 42.8653C115.061 42.9624 115.318 43.0075 115.602 43.0005C115.873 43.0005 116.112 42.9381 116.32 42.8133C116.535 42.6884 116.702 42.5358 116.819 42.3554L117.381 42.782C117.139 43.0664 116.865 43.278 116.559 43.4168C116.254 43.5486 115.935 43.6179 115.602 43.6249C115.207 43.6318 114.849 43.5728 114.53 43.448C114.211 43.3162 113.937 43.1358 113.708 42.9069C113.486 42.678 113.316 42.4075 113.198 42.0953C113.08 41.7762 113.022 41.4328 113.022 41.0652C113.022 40.6975 113.08 40.3576 113.198 40.0455C113.316 39.7264 113.486 39.4524 113.708 39.2235C113.937 38.9945 114.211 38.8177 114.53 38.6928C114.849 38.561 115.207 38.4986 115.602 38.5055C115.935 38.5124 116.254 38.5853 116.559 38.724C116.865 38.8558 117.139 39.0639 117.381 39.3483L116.819 39.7749ZM122.078 40.6906C122.078 40.2258 121.94 39.8512 121.662 39.5668C121.385 39.2755 120.996 39.1298 120.497 39.1298C120.275 39.1298 120.06 39.1749 119.852 39.2651C119.644 39.3483 119.46 39.4628 119.3 39.6084C119.148 39.7541 119.023 39.9206 118.926 40.1079C118.836 40.2952 118.79 40.4894 118.79 40.6906H122.078ZM118.77 41.2525C118.79 41.4953 118.849 41.7242 118.946 41.9392C119.044 42.1543 119.172 42.3416 119.331 42.5011C119.491 42.6537 119.675 42.7751 119.883 42.8653C120.091 42.9555 120.317 43.0005 120.559 43.0005C120.927 43.0005 121.243 42.9173 121.506 42.7508C121.777 42.5774 121.981 42.3797 122.12 42.1577L122.651 42.5947C122.359 42.9624 122.037 43.226 121.683 43.3855C121.336 43.5451 120.962 43.6249 120.559 43.6249C120.199 43.6249 119.862 43.5624 119.55 43.4376C119.245 43.3058 118.981 43.1254 118.759 42.8965C118.537 42.6676 118.36 42.397 118.229 42.0849C118.104 41.7727 118.041 41.4328 118.041 41.0652C118.041 40.6975 118.104 40.3576 118.229 40.0455C118.353 39.7333 118.527 39.4628 118.749 39.2339C118.971 39.0049 119.231 38.8281 119.529 38.7032C119.827 38.5714 120.15 38.5055 120.497 38.5055C120.865 38.5055 121.194 38.5714 121.485 38.7032C121.777 38.835 122.019 39.0119 122.214 39.2339C122.415 39.4489 122.568 39.7056 122.672 40.0038C122.776 40.2952 122.828 40.6073 122.828 40.9403V41.2525H118.77ZM128.516 41.0652C128.516 40.7946 128.471 40.5414 128.381 40.3056C128.297 40.0697 128.176 39.8651 128.016 39.6917C127.857 39.5183 127.663 39.383 127.434 39.2859C127.212 39.1818 126.958 39.1298 126.674 39.1298C126.39 39.1298 126.13 39.1818 125.894 39.2859C125.658 39.383 125.453 39.5183 125.28 39.6917C125.106 39.8651 124.971 40.0697 124.874 40.3056C124.777 40.5414 124.728 40.7946 124.728 41.0652C124.728 41.3357 124.777 41.5889 124.874 41.8248C124.971 42.0606 125.106 42.2652 125.28 42.4387C125.453 42.6121 125.658 42.7508 125.894 42.8549C126.13 42.952 126.39 43.0005 126.674 43.0005C126.958 43.0005 127.212 42.952 127.434 42.8549C127.663 42.7508 127.857 42.6121 128.016 42.4387C128.176 42.2652 128.297 42.0606 128.381 41.8248C128.471 41.5889 128.516 41.3357 128.516 41.0652ZM124.073 38.6304H124.76V39.442H124.78C124.891 39.2755 125.023 39.1333 125.176 39.0153C125.328 38.8974 125.488 38.8003 125.654 38.724C125.821 38.6477 125.991 38.5922 126.164 38.5575C126.345 38.5228 126.515 38.5055 126.674 38.5055C127.056 38.5055 127.402 38.5714 127.715 38.7032C128.034 38.8281 128.308 39.0049 128.537 39.2339C128.766 39.4628 128.942 39.7333 129.067 40.0455C129.199 40.3576 129.265 40.6975 129.265 41.0652C129.265 41.4328 129.199 41.7727 129.067 42.0849C128.942 42.397 128.766 42.6676 128.537 42.8965C128.308 43.1254 128.034 43.3058 127.715 43.4376C127.402 43.5624 127.056 43.6249 126.674 43.6249C126.515 43.6249 126.345 43.6075 126.164 43.5728C125.991 43.5382 125.821 43.4827 125.654 43.4064C125.488 43.33 125.328 43.2329 125.176 43.115C125.023 42.9971 124.891 42.8549 124.78 42.6884H124.76V46.4967H124.073V38.6304ZM132.952 39.2547H131.547V42.1265C131.547 42.3069 131.564 42.456 131.599 42.5739C131.634 42.6849 131.682 42.7716 131.745 42.8341C131.807 42.8965 131.88 42.9416 131.963 42.9693C132.054 42.9901 132.151 43.0005 132.255 43.0005C132.373 43.0005 132.494 42.9832 132.619 42.9485C132.744 42.9138 132.858 42.8687 132.962 42.8133L132.993 43.448C132.737 43.5659 132.428 43.6249 132.067 43.6249C131.936 43.6249 131.797 43.6075 131.651 43.5728C131.512 43.5382 131.384 43.4723 131.266 43.3751C131.148 43.278 131.051 43.1462 130.975 42.9797C130.899 42.8133 130.86 42.5947 130.86 42.3242V39.2547H129.83V38.6304H130.86V37.2569H131.547V38.6304H132.952V39.2547ZM134.888 36.7574C134.888 36.9031 134.836 37.0245 134.731 37.1216C134.627 37.2118 134.513 37.2569 134.388 37.2569C134.263 37.2569 134.149 37.2118 134.045 37.1216C133.941 37.0245 133.889 36.9031 133.889 36.7574C133.889 36.6117 133.941 36.4938 134.045 36.4036C134.149 36.3065 134.263 36.258 134.388 36.258C134.513 36.258 134.627 36.3065 134.731 36.4036C134.836 36.4938 134.888 36.6117 134.888 36.7574ZM134.731 43.5H134.045V38.6304H134.731V43.5ZM140.561 41.0652C140.561 40.7946 140.516 40.5414 140.426 40.3056C140.342 40.0697 140.221 39.8651 140.061 39.6917C139.902 39.5183 139.708 39.383 139.479 39.2859C139.257 39.1818 139.003 39.1298 138.719 39.1298C138.435 39.1298 138.178 39.1818 137.949 39.2859C137.727 39.383 137.536 39.5183 137.377 39.6917C137.224 39.8651 137.103 40.0697 137.013 40.3056C136.929 40.5414 136.888 40.7946 136.888 41.0652C136.888 41.3357 136.929 41.5889 137.013 41.8248C137.103 42.0606 137.224 42.2652 137.377 42.4387C137.536 42.6121 137.727 42.7508 137.949 42.8549C138.178 42.952 138.435 43.0005 138.719 43.0005C139.003 43.0005 139.257 42.952 139.479 42.8549C139.708 42.7508 139.902 42.6121 140.061 42.4387C140.221 42.2652 140.342 42.0606 140.426 41.8248C140.516 41.5889 140.561 41.3357 140.561 41.0652ZM141.31 41.0652C141.31 41.4328 141.244 41.7727 141.112 42.0849C140.987 42.397 140.811 42.6676 140.582 42.8965C140.353 43.1254 140.079 43.3058 139.76 43.4376C139.447 43.5624 139.101 43.6249 138.719 43.6249C138.345 43.6249 137.998 43.5624 137.679 43.4376C137.366 43.3058 137.096 43.1254 136.867 42.8965C136.638 42.6676 136.458 42.397 136.326 42.0849C136.201 41.7727 136.139 41.4328 136.139 41.0652C136.139 40.6975 136.201 40.3576 136.326 40.0455C136.458 39.7333 136.638 39.4628 136.867 39.2339C137.096 39.0049 137.366 38.8281 137.679 38.7032C137.998 38.5714 138.345 38.5055 138.719 38.5055C139.101 38.5055 139.447 38.5714 139.76 38.7032C140.079 38.8281 140.353 39.0049 140.582 39.2339C140.811 39.4628 140.987 39.7333 141.112 40.0455C141.244 40.3576 141.31 40.6975 141.31 41.0652ZM143.212 38.6304C143.226 38.7622 143.233 38.894 143.233 39.0258C143.24 39.1506 143.243 39.2789 143.243 39.4107H143.264C143.34 39.2789 143.437 39.1576 143.555 39.0466C143.673 38.9356 143.805 38.8419 143.951 38.7656C144.096 38.6824 144.249 38.62 144.408 38.5783C144.575 38.5298 144.738 38.5055 144.897 38.5055C145.522 38.5055 145.983 38.672 146.281 39.0049C146.58 39.331 146.729 39.7992 146.729 40.4096V43.5H146.042V40.805C146.042 40.264 145.948 39.8512 145.761 39.5668C145.574 39.2755 145.227 39.1298 144.721 39.1298C144.686 39.1298 144.589 39.1437 144.429 39.1714C144.27 39.1992 144.1 39.2755 143.919 39.4003C143.746 39.5252 143.59 39.7125 143.451 39.9622C143.312 40.212 143.243 40.5588 143.243 41.0027V43.5H142.556V39.7021C142.556 39.5703 142.549 39.4038 142.535 39.2026C142.529 39.0015 142.518 38.8107 142.504 38.6304H143.212ZM149.337 36.7574C149.337 36.9031 149.285 37.0245 149.181 37.1216C149.077 37.2118 148.962 37.2569 148.838 37.2569C148.713 37.2569 148.598 37.2118 148.494 37.1216C148.39 37.0245 148.338 36.9031 148.338 36.7574C148.338 36.6117 148.39 36.4938 148.494 36.4036C148.598 36.3065 148.713 36.258 148.838 36.258C148.962 36.258 149.077 36.3065 149.181 36.4036C149.285 36.4938 149.337 36.6117 149.337 36.7574ZM149.181 43.5H148.494V38.6304H149.181V43.5ZM153.418 39.7853C153.314 39.5842 153.175 39.4246 153.002 39.3067C152.829 39.1888 152.617 39.1298 152.367 39.1298C152.249 39.1298 152.128 39.1437 152.003 39.1714C151.885 39.1992 151.778 39.2443 151.681 39.3067C151.583 39.3622 151.504 39.435 151.441 39.5252C151.386 39.6154 151.358 39.7264 151.358 39.8582C151.358 40.0871 151.438 40.2536 151.597 40.3576C151.757 40.4617 151.996 40.5519 152.315 40.6282L153.012 40.7946C153.352 40.8709 153.633 41.027 153.855 41.2629C154.084 41.4918 154.199 41.7797 154.199 42.1265C154.199 42.3901 154.143 42.619 154.032 42.8133C153.928 43.0005 153.786 43.1566 153.606 43.2815C153.432 43.3994 153.231 43.4861 153.002 43.5416C152.773 43.5971 152.541 43.6249 152.305 43.6249C151.93 43.6249 151.58 43.5555 151.254 43.4168C150.935 43.2711 150.661 43.0248 150.432 42.678L151.025 42.2722C151.164 42.4942 151.337 42.6711 151.545 42.8029C151.76 42.9346 152.014 43.0005 152.305 43.0005C152.444 43.0005 152.582 42.9867 152.721 42.9589C152.86 42.9242 152.981 42.8757 153.085 42.8133C153.196 42.7439 153.283 42.6572 153.345 42.5531C153.415 42.4491 153.449 42.3277 153.449 42.1889C153.449 41.9462 153.359 41.7727 153.179 41.6687C152.999 41.5577 152.78 41.471 152.523 41.4086L151.857 41.2525C151.774 41.2317 151.66 41.197 151.514 41.1484C151.375 41.0999 151.237 41.027 151.098 40.9299C150.966 40.8328 150.852 40.7079 150.755 40.5553C150.657 40.3958 150.609 40.2015 150.609 39.9726C150.609 39.7229 150.657 39.5044 150.755 39.3171C150.859 39.1298 150.994 38.9772 151.16 38.8593C151.334 38.7413 151.528 38.6546 151.743 38.5991C151.958 38.5367 152.18 38.5055 152.409 38.5055C152.749 38.5055 153.064 38.5714 153.356 38.7032C153.647 38.835 153.873 39.0604 154.032 39.3795L153.418 39.7853ZM157.786 39.2547H156.381V42.1265C156.381 42.3069 156.399 42.456 156.433 42.5739C156.468 42.6849 156.517 42.7716 156.579 42.8341C156.642 42.8965 156.714 42.9416 156.798 42.9693C156.888 42.9901 156.985 43.0005 157.089 43.0005C157.207 43.0005 157.328 42.9832 157.453 42.9485C157.578 42.9138 157.693 42.8687 157.797 42.8133L157.828 43.448C157.571 43.5659 157.262 43.6249 156.902 43.6249C156.77 43.6249 156.631 43.6075 156.486 43.5728C156.347 43.5382 156.218 43.4723 156.101 43.3751C155.983 43.278 155.885 43.1462 155.809 42.9797C155.733 42.8133 155.695 42.5947 155.695 42.3242V39.2547H154.665V38.6304H155.695V37.2569H156.381V38.6304H157.786V39.2547Z" fill="#8D8D8D"/>
</svg>
